<svg xmlns="http://www.w3.org/2000/svg" viewBox="0 0 537 537"><defs><style>.cls-1{fill:#61d1a3;}.cls-2{fill:#fff;}</style></defs><title>icono</title><g id="Capa_2" data-name="Capa 2"><circle class="cls-1" cx="268" cy="269" r="268.5"/><path class="cls-2" d="M397.71,269q0,70,0,140c0,17-7,29.91-22.55,37.24a38.93,38.93,0,0,1-16,3.63q-91.22.37-182.44.11c-20.78,0-37.2-16-38.37-36.74-.09-1.53-.14-3.06-.14-4.59q0-139.66,0-279.32c0-15.65,5.89-27.89,19.38-36.1,6.51-4,13.71-5.33,21.3-5.32q75.13.08,150.27,0c9.66,0,19.33,0,29,0,22,.12,38.53,15.82,39.44,37.85.4,9.65.13,19.32.13,29Q397.72,211.89,397.71,269ZM150.52,160.51c-.08,1.34-.18,2.27-.18,3.2q0,123,0,246.06c0,17.12,11.35,28.21,28.5,28.22q89.09,0,178.18,0a33.67,33.67,0,0,0,8.73-1c12.59-3.43,19.81-13.43,19.81-27.47q.05-122.68,0-245.35c0-1.14-.12-2.27-.19-3.57Z"/><path class="cls-2" d="M222.9,214.38V202.75H349.09v11.64Z"/><path class="cls-2" d="M349.2,251.11v11.62H222.9V251.11Z"/><path class="cls-2" d="M349.22,299.5v11.58H222.91V299.5Z"/><path class="cls-2" d="M210.05,256.45a14.52,14.52,0,1,1-14.56-14.51A14.4,14.4,0,0,1,210.05,256.45Z"/><path class="cls-2" d="M210,208.13a14.52,14.52,0,1,1-29-.14,14.52,14.52,0,0,1,29,.14Z"/><path class="cls-2" d="M210.05,304.8a14.53,14.53,0,1,1-14.49-14.61A14.47,14.47,0,0,1,210.05,304.8Z"/></g></svg>