<svg xmlns="http://www.w3.org/2000/svg" viewBox="0 0 538 537"><defs><style>.cls-1,.cls-3{fill:#61d1a3;}.cls-2{fill:none;}.cls-2,.cls-3{stroke:#61d1a3;stroke-miterlimit:10;stroke-width:30px;}.cls-4{fill:#fff;}</style></defs><title>icono</title><g id="Capa_2" data-name="Capa 2"><circle class="cls-1" cx="269" cy="268.5" r="268.5"/><path class="cls-2" d="M287.63,115.75h75.86s42.07,32.42-20.69,59.31"/><polyline class="cls-2" points="382.07 304.25 319.46 173.67 293.11 118.72"/><line class="cls-2" x1="316.97" y1="159.44" x2="160.8" y2="159.44"/><path class="cls-3" d="M447.07,236.44q28.43,28.43,28.43,68.64t-28.43,68.64q-28.43,28.43-68.64,28.43t-68.64-28.43q-28.43-28.43-28.43-68.64t28.43-68.64Q338.22,208,378.43,208T447.07,236.44Zm-68.64-17.56q-35.71,0-60.95,25.24t-25.24,60.95q0,35.71,25.24,61t60.95,25.33q35.71,0,60.95-25.33t25.24-61q0-35.71-25.24-60.95t-60.94-25.23Z"/><path class="cls-2" d="M231.37,350.66a93.1,93.1,0,1,1-70.77-153.6"/><circle class="cls-2" cx="216.96" cy="386.34" r="15.38"/><circle class="cls-2" cx="104.78" cy="386.34" r="15.38"/><path class="cls-2" d="M201.13,183.24s-34.38,30.76-83.23,0"/><path class="cls-4" d="M212.85,375.9c2.72,14.05,5.71,28.06,8,42.18,1.07,6.49,1.79,13.29,1,19.76-1.05,8.92-5,16.72-15.37,17.91-10.08,1.15-16.89-4.24-19.42-13.28-3.13-11.18-4.19-22.93-6.88-34.26-10.49-44.31-21.07-88.6-32.19-132.75-1.27-5-5.28-10.33-9.51-13.52C123,250.23,106.68,239.52,90.93,228c-6.59-4.8-10-12.33-5.7-19.47a30.7,30.7,0,0,1,15.25-12.34c4-1.37,10.44,1.82,14.88,4.47,12,7.18,23.23,15.79,35.41,22.68,19.4,11,29.33,7.5,39.22-12.64,5.67-11.54,10.63-23.42,16.47-34.86,6.18-12.11,17.13-15.81,28.19-10.24,10.3,5.19,12.83,15.51,6.4,28.08-5.49,10.74-10.88,21.6-17.33,31.76-8.67,13.66-8.53,27.11-3.44,42,16.53,48.59,32.31,97.44,48.36,146.2.85,2.59,2,5.18,2.24,7.85,1,8.91-1.73,16.65-10.17,20.48-8.67,3.94-16.84,1-21.18-7-6.66-12.26-12.06-25.23-17.6-38.07-3-7-5.19-14.3-7.74-21.47Zm-17.37-41c9.34-5.64,12.47-2.09,15.19,5.84,9.35,27.21,19.06,54.3,29.4,81.14,2.9,7.53,6.9,18.44,18,13.3,10.5-4.87,5.2-14.56,2.59-22.67-16.91-52.57-33.94-105.1-50.36-157.82a27.21,27.21,0,0,1,1-17.74C218,222,226,207.78,233.75,193.37c6.07-11.33,5.4-17.94-3-21.84-10.12-4.68-15.27,1.44-19.15,9.52-5.72,11.94-11,24.12-17,35.89-10.06,19.56-24.07,24.53-43.52,14.27-13.38-7.06-25.77-16-38.44-24.39-6.81-4.48-13.61-7.41-19.37.69s-.75,13.72,5.92,18.35c15,10.46,30.33,20.61,45,31.6,4.29,3.22,8.61,8.41,9.81,13.43,13,54.52,25.08,109.24,38.25,163.71,1.37,5.65,7.84,13.87,12.35,14.14,8.82.53,11.53-8.33,10.65-16.22-1.52-13.51-3.5-27-6.28-40.33C204.86,372.9,200,353.79,195.48,334.87Z"/><path class="cls-4" d="M328.53,315.86c-5.53,14.49-11,29-16.62,43.45a126.67,126.67,0,0,1-6.28,13.81c-7.17,13.37-16.59,18.37-25.79,14s-12.09-15.5-7.37-28.74c5.35-15,11.23-29.88,16.07-45.07,12-37.79,23.9-75.64,35-113.7,1.66-5.69.5-13.35-2-18.88C314.79,165.86,305.71,152,299.39,137c-2.49-5.91-2.57-15.63.8-20.44s12.57-8,18.9-7.54c5.23.38,11.62,6.14,14.65,11.21,6.55,11,11.17,23.11,16.76,34.68,10.15,21,20.61,24.43,41,12.6,11.1-6.44,21.48-14.1,32.25-21.11,12.61-8.21,23.33-7.43,29.92,2,6.48,9.32,3.45,19.85-8.89,28.68-13.62,9.75-27.88,18.62-41.16,28.8-4.79,3.67-9.54,9.53-10.9,15.2-12.77,53.31-24.91,106.77-37,160.25-2.75,12.21-11.13,20.68-20.93,19.67-9.44-1-17.49-10.83-16.4-23.61,1.33-15.46,4.79-30.74,7.51-46.07.88-4.94,2.33-9.77,3.52-14.65Zm-5.42,61.84c3.69,4.94,7.06,14.26,12.26,15.43,10.44,2.33,12.45-7.73,14-16,.21-1.15.43-2.3.7-3.44,12.29-53,24.42-106.08,37.15-159,1.12-4.68,5.34-9.44,9.4-12.43,14.73-10.86,30.05-20.9,45-31.41,6.49-4.55,11.87-10.25,6-18.41s-12.7-4.95-19.46-.56c-12.72,8.26-25.08,17.26-38.48,24.22-19.73,10.25-33.3,5.4-43.33-14.17-6.2-12.11-11.43-24.72-17.76-36.76-2-3.8-5.79-8.39-9.45-9.11-4.13-.8-11.12,1-13.07,4.12-2.31,3.65-2.23,10.64-.28,14.83,7.19,15.49,16,30.23,23.28,45.69,2.32,4.93,3.47,11.6,2.26,16.8-4.14,17.78-8.92,35.47-14.65,52.8-12.45,37.64-25.56,75.07-38.58,112.52-2.64,7.6-2.44,15.27,5.53,17.47,3.77,1,11.35-4,14-8.21,5.67-9.17,9.89-19.4,13.57-29.6,7.12-19.73,13.26-39.81,20.37-59.54.92-2.56,5.2-3.91,7.93-5.82,1.51,3,3.56,5.81,4.32,9,.48,2-1,4.45-1.54,6.73C336.12,320.07,330,347.36,323.11,377.7Z"/><path class="cls-4" d="M352.79,135.84c-.21-14.62,10.8-25.63,25.66-25.63,14.67,0,26.26,11.4,26.09,25.67-.16,13.48-12,25.2-25.53,25.34C364.22,161.38,353,150.52,352.79,135.84ZM378.72,117c-10.55-.18-18.5,7.29-18.91,17.76a18.81,18.81,0,0,0,18.39,19.78c9.61.13,18.9-8.54,19.37-18.09C398.07,126.3,389.24,117.19,378.72,117Z"/><path class="cls-4" d="M188,191.29c-.27,14.58-11.8,25.42-26.47,24.92s-25.25-12-24.78-26.73c.43-13.52,12.53-25,26-24.67A25.85,25.85,0,0,1,188,191.29Zm-6.39,0c.34-10.07-8.83-19.44-19.15-19.58-9.57-.13-18.93,8.72-19.31,18.25-.42,10.21,8.51,19.14,19.23,19.23C172.68,209.33,181.26,201.33,181.6,191.32Z"/><path class="cls-4" d="M217.15,110.88a43,43,0,0,1,3.31,14.31c.11,1.92,3.11,1.93,3,0A45.36,45.36,0,0,0,220,110.08c-.73-1.76-3.64-1-2.89.8Z"/><path class="cls-4" d="M150.74,124.73l4.61,9c.88,1.72,3.47.2,2.59-1.51l-4.61-9c-.88-1.72-3.47-.2-2.59,1.51Z"/><path class="cls-4" d="M89.31,166.19a32.11,32.11,0,0,1,9.51,5.27c1.49,1.2,3.63-.91,2.12-2.12a36.4,36.4,0,0,0-10.83-6c-1.83-.64-2.61,2.26-.8,2.89Z"/><path class="cls-4" d="M47.52,212.44l11.3,2.29c1.88.38,2.69-2.51.8-2.89l-11.3-2.29c-1.88-.38-2.69,2.51-.8,2.89Z"/><path class="cls-4" d="M297.5,74,302,81.87a1.5,1.5,0,0,0,2.59-1.51l-4.52-7.91A1.5,1.5,0,0,0,297.5,74Z"/><path class="cls-4" d="M349.35,77.33a46.39,46.39,0,0,0,3.3,14c.72,1.76,3.62,1,2.89-.8a43.86,43.86,0,0,1-3.19-13.22c-.15-1.91-3.15-1.93-3,0Z"/><path class="cls-4" d="M419.51,94.68l-7.85,4.62a1.5,1.5,0,0,0,1.51,2.59L421,97.27a1.5,1.5,0,0,0-1.51-2.59Z"/><path class="cls-4" d="M461.88,126.46a26.1,26.1,0,0,0-10.57,1.18c-1.83.59-1,3.49.8,2.89a23.93,23.93,0,0,1,9.77-1.08c1.92.18,1.91-2.82,0-3Z"/></g></svg>