<svg xmlns="http://www.w3.org/2000/svg" viewBox="0 0 537 537"><defs><style>.cls-1{fill:#61d1a3;}.cls-2{fill:#fff;}.cls-3,.cls-4,.cls-5{fill:none;stroke:#fff;stroke-miterlimit:10;}.cls-3{stroke-width:8px;}.cls-4{stroke-width:6px;}.cls-5{stroke-width:7px;}</style></defs><title>icono</title><g id="Capa_2" data-name="Capa 2"><circle class="cls-1" cx="268" cy="269" r="268.5"/><path class="cls-2" d="M397.71,269q0,70,0,140c0,17-7,29.91-22.55,37.24a38.93,38.93,0,0,1-16,3.63q-91.22.37-182.44.11c-20.78,0-37.2-16-38.37-36.74-.09-1.53-.14-3.06-.14-4.59q0-139.66,0-279.32c0-15.65,5.89-27.89,19.38-36.1,6.51-4,13.71-5.33,21.3-5.32q75.13.08,150.27,0c9.66,0,19.33,0,29,0,22,.12,38.53,15.82,39.44,37.85.4,9.65.13,19.32.13,29Q397.72,211.89,397.71,269ZM150.52,160.51c-.08,1.34-.18,2.27-.18,3.2q0,123,0,246.06c0,17.12,11.35,28.21,28.5,28.22q89.09,0,178.18,0a33.67,33.67,0,0,0,8.73-1c12.59-3.43,19.81-13.43,19.81-27.47q.05-122.68,0-245.35c0-1.14-.12-2.27-.19-3.57Z"/><path class="cls-2" d="M222.9,214.38V202.75H349.09v11.64Z"/><path class="cls-2" d="M349.2,251.11v11.62H222.9V251.11Z"/><path class="cls-2" d="M349.22,299.5v11.58H222.91V299.5Z"/><path class="cls-2" d="M210.05,256.45a14.52,14.52,0,1,1-14.56-14.51A14.4,14.4,0,0,1,210.05,256.45Z"/><path class="cls-2" d="M210,208.13a14.52,14.52,0,1,1-29-.14,14.52,14.52,0,0,1,29,.14Z"/><path class="cls-2" d="M210.05,304.8a14.53,14.53,0,1,1-14.49-14.61A14.47,14.47,0,0,1,210.05,304.8Z"/><circle class="cls-1" cx="271" cy="269" r="268.5"/><path class="cls-2" d="M173.78,329.92c2.45-6.86,7.29-9.45,14.56-9.36,20.59.28,41.19.1,61.79.1h5.28c.09-2,.22-3.63.22-5.23q0-23,0-46c0-6.17.64-6.83,6.6-6.85q13.08,0,26.16,0c5.84,0,6.54.73,6.55,6.44q0,23,0,46c0,1.63,0,3.27,0,5.64h66.86c9.45,0,11.66,1.48,15.17,10.16V448.25c-2.76,7.09-7.93,9.43-15.48,9.4q-86.6-.32-173.2,0c-7.26,0-12.08-2.54-14.54-9.38Zm15.47,119.62H361.42l-64.55-52.08c-6.63,5.61-12,12.48-21.55,12.5s-15-7.2-21.56-12.48Zm-.37-121c1,1.1,1.46,1.78,2.07,2.32q37.7,33.68,75.42,67.34c6.21,5.53,11.72,5.49,18-.11q35.23-31.37,70.39-62.81c2.27-2,4.46-4.14,7.26-6.74H295.21v7.72a83.35,83.35,0,0,1,10,.11c1.86.23,4.27,1.14,5.14,2.54.66,1.05-.26,3.76-1.3,5.09-9.75,12.42-19.65,24.72-29.58,37-3.12,3.85-5.14,3.86-8.26,0q-15-18.6-29.85-37.37c-1-1.21-1.71-3.72-1.1-4.74.8-1.33,3-2.32,4.71-2.51a91.74,91.74,0,0,1,10.23-.11v-7.72ZM368.54,445.22V333.41l-65.75,58.77ZM247.9,392.17,182,333.34v112ZM263.3,270.6v5.17q0,29.1,0,58.2c0,9.95.88,10.4-10,10.41-.2,0-.4.3-.9.71l22.89,28.63,23.37-29.25c-1.6-.09-2.44-.17-3.29-.18-8-.15-8-.17-8-8.16q0-30.23,0-60.45c0-1.61,0-3.22,0-5.08Z"/><path class="cls-1" d="M189.25,449.55l64.5-52c6.54,5.27,11.9,12.5,21.56,12.48s14.92-6.89,21.55-12.5l64.55,52.08Zm93.61-7.65c7.36,0,14.73,0,22.09,0,2.94,0,5.84-.4,5.91-3.93s-2.7-4.2-5.71-4.19q-21.87,0-43.73,0c-2.93,0-5.71.48-5.61,4.19s3,3.91,5.86,3.9C268.73,441.89,275.8,441.9,282.86,441.9Zm-34.08-4.17c-2.28-1.69-3.92-3.79-5-3.55-1.55.34-2.7,2.46-4,3.82,1.4,1.27,2.68,3.32,4.23,3.55C245.1,441.74,246.61,439.56,248.78,437.73Z"/><path class="cls-1" d="M188.89,328.53h66.32v7.72a91.74,91.74,0,0,0-10.23.11c-1.71.19-3.91,1.18-4.71,2.51-.62,1,.14,3.53,1.1,4.74q14.77,18.8,29.85,37.37c3.12,3.86,5.14,3.85,8.26,0,9.93-12.28,19.83-24.58,29.58-37,1-1.32,2-4,1.3-5.09-.87-1.4-3.28-2.31-5.14-2.54a83.35,83.35,0,0,0-10-.11v-7.72H362c-2.8,2.6-5,4.71-7.26,6.74q-35.18,31.42-70.39,62.81c-6.3,5.61-11.82,5.64-18,.11Q228.64,364.56,191,330.85C190.35,330.31,189.86,329.63,188.89,328.53Z"/><path class="cls-1" d="M368.54,445.22l-65.75-53,65.75-58.77Z"/><path class="cls-1" d="M247.9,392.17,182,445.31v-112Z"/><path class="cls-1" d="M263.3,270.6h24.1c0,1.85,0,3.46,0,5.08q0,30.23,0,60.45c0,8,0,8,8,8.16.85,0,1.69.09,3.29.18l-23.37,29.25-22.89-28.63c.5-.4.7-.71.9-.71,10.83,0,10-.46,10-10.41q0-29.1,0-58.2Z"/><rect class="cls-1" x="237.37" y="427.67" width="76.65" height="15.72"/><path class="cls-3" d="M283.93,43h51.89s28.77,22.17-14.15,40.57"/><polyline class="cls-3" points="348.52 171.93 305.69 82.61 287.68 45.04"/><line class="cls-4" x1="303.99" y1="72.88" x2="197.18" y2="72.88"/><path class="cls-2" d="M393,125.55Q412.42,145,412.42,172.5T393,219.45Q373.53,238.9,346,238.9t-46.95-19.45Q279.63,200,279.63,172.5t19.45-46.95Q318.53,106.1,346,106.1T393,125.55Zm-46.95-12a58.94,58.94,0,0,0-59,59,58.91,58.91,0,0,0,100.64,41.73A57,57,0,0,0,405,172.49,58.93,58.93,0,0,0,346,113.55Z"/><path class="cls-5" d="M245.45,203.67A63.68,63.68,0,1,1,197,98.62"/><circle class="cls-5" cx="235.59" cy="228.08" r="10.52"/><circle class="cls-5" cx="158.86" cy="228.08" r="10.52"/><path class="cls-5" d="M224.76,89.16s-23.51,21-56.93,0"/></g></svg>