<svg xmlns="http://www.w3.org/2000/svg" viewBox="0 0 537 537"><defs><style>.cls-1{fill:#61d1a3;}.cls-2{fill:#fff;}</style></defs><title>icono</title><g id="Capa_2" data-name="Capa 2"><circle class="cls-1" cx="269" cy="268.5" r="268.5"/><path class="cls-2" d="M78.95,217.36c8.34-3.73,10.79-2.4,11.07,6.34.2,6.18.14,12.37.05,18.56-.07,4.57,1.93,6.6,6.57,6.59,43.84-.06,87.68,0,132.55,0,.4-10.26,2.08-20.22,11.63-25.51a30.94,30.94,0,0,1,15.08-4c13.17.37,20.35,9.87,23.06,29.59h8.81c49.77,0,99.55-.19,149.32.07,7.78,0,10.87-1.72,10.76-10.24-.44-33.46-.32-66.93,0-100.39.08-7.68-2.23-11-10.11-10.09a47.93,47.93,0,0,1-12.61-.28c-1.71-.27-4.36-2.75-4.29-4.1.11-2,1.79-5,3.58-5.78,9.31-4.13,22.63-.87,29.63,7,6.4,7.25,4.77,18.44,4.77,27.37q0,48.46,0,96.92c-4.34,8.09-11,10.45-20.15,10.39-50.35-.35-100.7-.14-151.05-.12H278.8V310c8.51,0,17.11,0,25.71,0,30.77-.12,48.34,17.09,48.26,47.7a280.16,280.16,0,0,1-1.5,28.53c-.39,3.74-1.88,8.11-4.38,10.76-8.49,9-9.56,19.57-9.36,31.13.16,9.69-5.85,16.12-15.65,16.31q-37.53.73-75.08,0c-9.73-.19-16.3-7.29-15.65-17.33.73-11.26-2.83-19.37-10.72-27.41-9.6-9.78-17.49-21.25-25.92-32.14A53.35,53.35,0,0,1,188,356.74c-5-11.21-3.36-22,4-28.84,7.83-7.3,19.25-8.78,29.85-3.86l6.62,3v-67c-2.34-.1-5.08-.33-7.81-.33-40.51,0-81-.3-121.52.12-9.15.09-15.78-2.35-20.13-10.4Zm161.88,66.14h-.08c0,12.93.29,25.86-.08,38.78-.37,12.7-10.32,18.48-21.62,13-1.26-.61-2.57-2-3.72-1.83-5.25.62-11.15.4-15.47,2.86-5.22,3-4.92,9-2.46,14.35a40.33,40.33,0,0,0,4.46,8.08c9.53,12.16,18.42,25,29.17,36,8.23,8.41,12.14,17.11,11,28.5-.76,7.51,2.43,10.54,10.23,10.4q32-.56,64.07,0c8.06.15,11.5-2.69,10.75-10.77-1-11,1.12-20.65,8.7-29.66,3.95-4.69,5.05-12.26,6.11-18.75,1-6,.29-12.33.21-18.51-.29-21.3-13.51-34.67-34.8-35.09-8.71-.17-17.42,0-26.13,0-11.83-.06-14.1-2.36-14.13-14.49-.05-20.23.08-40.47-.07-60.7-.07-9.57-5.28-15.44-13-15.4s-12.92,5.78-13,15.37C240.71,258.21,240.83,270.86,240.83,283.51Z"/><path class="cls-2" d="M78.95,127.87c4.2-7.63,10.44-10.43,19.3-10.41q149.69.38,299.38.2c2,0,4.33-.62,5.8.25,2,1.21,4.31,3.36,4.75,5.47.26,1.22-2.61,3.94-4.53,4.58-2.55.85-5.55.37-8.36.38H102.66c-12.58,0-12.59,0-12.59,12.48,0,17.71.17,35.42,0,53.13-.07,9.4-3,11-11.15,6.52Z"/><path class="cls-2" d="M118.33,194.52h-6.6v17.89h-7.23V156.49h15.87a19.31,19.31,0,0,1,11.39,5.56,19.07,19.07,0,0,1,0,26.91q-3.85,3.84-5.87,4.33l12.41,19.12h-8.77Zm-6.6-30.75v23.48h6.6a11.74,11.74,0,0,0,0-23.48Z"/><path class="cls-2" d="M175.54,156.49v7.23H152.65v17.09h22.89v7.23H152.65v17.09h22.89v7.27H145.41V156.49Z"/><path class="cls-2" d="M199.37,183.72a24.24,24.24,0,0,1-9.63-5.68,12.4,12.4,0,0,1-3.69-9.14,13.1,13.1,0,0,1,22.33-9.23,16,16,0,0,1,3.63,6.67l-6.57,2.59a12.74,12.74,0,0,0-2.17-4.19,5.93,5.93,0,0,0-8.28,0,5.6,5.6,0,0,0-1.71,4.14,5.66,5.66,0,0,0,1.71,4.16,18.88,18.88,0,0,0,5.31,3.46,27.49,27.49,0,0,1,11.15,6.71,16.63,16.63,0,0,1,5.14,12.3,17.42,17.42,0,0,1-29.77,12.34q-4.09-4.09-5.17-11.29l7-2.55q.66,6.18,3.25,8.77a10.24,10.24,0,0,0,14.47-14.5A21.23,21.23,0,0,0,199.37,183.72Z"/><path class="cls-2" d="M253.75,156.49v7.23H230.86v17.09h22.89v7.23H230.86v17.09h22.89v7.27H223.63V156.49Z"/><path class="cls-2" d="M277.2,194.52h-6.6v17.89h-7.23V156.49h15.87a19.31,19.31,0,0,1,11.39,5.56,19.07,19.07,0,0,1,0,26.91q-3.85,3.84-5.87,4.33l12.41,19.12h-8.77Zm-6.6-30.75v23.48h6.6a11.74,11.74,0,0,0,0-23.48Z"/><path class="cls-2" d="M320.75,212.41l-20.3-55.92h7.69l14.57,40.08,14.61-40.08H345l-20.37,55.92Z"/><path class="cls-2" d="M370.86,156.49l20.34,55.92h-7.69l-7.2-19.78H361.49l-7.16,19.78h-7.72l20.34-55.92Zm2.83,28.9-4.79-13.1-4.75,13.1Z"/><path class="cls-2" d="M412,194.52h-6.6v17.89h-7.23V156.49h15.87a19.31,19.31,0,0,1,11.39,5.56,19.07,19.07,0,0,1,0,26.91q-3.85,3.84-5.87,4.33L432,212.41h-8.77Zm-6.6-30.75v23.48H412a11.74,11.74,0,0,0,0-23.48Z"/></g></svg>