<svg xmlns="http://www.w3.org/2000/svg" viewBox="0 0 537 537"><defs><style>.cls-1{fill:#61d1a3;}.cls-2,.cls-3,.cls-5{fill:none;stroke:#fff;stroke-miterlimit:10;}.cls-2{stroke-width:13px;}.cls-3{stroke-width:11px;}.cls-4{fill:#fff;}.cls-5{stroke-width:10px;}</style></defs><title>icono</title><g id="Capa_2" data-name="Capa 2"><circle class="cls-1" cx="268" cy="269" r="268.5"/><path class="cls-2" d="M285.13,114.25H361s42.07,32.42-20.69,59.31"/><polyline class="cls-2" points="379.57 302.75 316.96 172.17 290.61 117.22"/><line class="cls-3" x1="314.47" y1="157.94" x2="158.3" y2="157.94"/><path class="cls-4" d="M444.57,234.94Q473,263.38,473,303.58t-28.43,68.64q-28.43,28.43-68.64,28.43t-68.64-28.43q-28.43-28.43-28.43-68.64t28.43-68.64q28.43-28.43,68.64-28.43T444.57,234.94Zm-68.64-17.56q-35.71,0-60.95,25.24t-25.24,60.95q0,35.71,25.24,61t60.95,25.33q35.71,0,60.95-25.33t25.24-61q0-35.71-25.24-60.95t-60.94-25.23Z"/><path class="cls-2" d="M228.87,349.16a93.1,93.1,0,1,1-70.77-153.6"/><circle class="cls-5" cx="214.46" cy="384.84" r="15.38"/><circle class="cls-5" cx="102.28" cy="384.84" r="15.38"/><path class="cls-2" d="M198.63,181.74s-34.38,30.76-83.23,0"/></g></svg>